<?xml version="1.0" encoding="utf-8"?>
<!-- Uploaded to: SVG Repo, www.svgrepo.com, Generator: SVG Repo Mixer Tools -->
<svg fill="#000000" height="800px" width="800px" version="1.1" id="_x31_" xmlns="http://www.w3.org/2000/svg" xmlns:xlink="http://www.w3.org/1999/xlink" 
	 viewBox="0 0 128 128" xml:space="preserve">
<g>
	<circle cx="63.2" cy="64.3" r="9.2"/>
	<path d="M22.1,30.6c-4.8,0.9-7.9,5.5-7,10.2c0.9,4.8,5.5,7.9,10.2,7c4.8-0.9,7.9-5.5,7-10.2C31.5,32.9,26.9,29.8,22.1,30.6z
		 M27.2,35.1c0.9-0.1,1.6,0.4,1.7,1.2c0.1,0.9-0.4,1.6-1.2,1.7c-0.9,0.1-1.6-0.4-1.7-1.2C25.8,35.9,26.3,35.2,27.2,35.1z M18.1,38.3
		c-0.1-0.7,0.4-1.6,1.2-1.7c0.9-0.1,1.6,0.4,1.7,1.2s-0.4,1.6-1.2,1.7C19.1,39.6,18.2,39.1,18.1,38.3z M29.3,43.8
		c-0.4,0.2-0.9,0.1-1.2-0.2c-0.9-1.2-2.3-1.8-3.8-1.6c-1.5,0.2-2.6,1.4-3,2.8c-0.1,0.5-0.6,0.7-1,0.6c-0.5-0.1-0.7-0.5-0.6-1
		c0.5-2.1,2.2-3.7,4.3-4.1c2.1-0.4,4.2,0.5,5.5,2.3C29.8,43.1,29.6,43.6,29.3,43.8z"/>
	<path d="M105,28.2c-4.7-1-9.5,2-10.5,6.8c-1,4.8,2,9.5,6.8,10.5c4.8,1,9.5-2,10.5-6.8S109.8,29.2,105,28.2z M98.4,33.6
		c0.1-0.7,1-1.4,1.8-1.1c0.9,0.1,1.4,1,1.1,1.8c-0.1,0.9-1,1.4-1.8,1.1S98.1,34.5,98.4,33.6z M107.3,40.8c-1.2,1.7-3.4,2.6-5.5,2.1
		c-2.1-0.5-3.7-2.1-4.2-4.2c-0.1-0.5,0.2-0.9,0.6-1c0.5-0.1,0.9,0.2,1,0.6c0.4,1.5,1.5,2.6,2.8,2.8c1.5,0.2,3-0.2,3.8-1.5
		c0.2-0.4,0.9-0.5,1.2-0.2C107.6,40,107.6,40.5,107.3,40.8z M109.1,35.9c-0.1,0.9-1,1.4-1.8,1.1c-0.9-0.1-1.4-1-1.1-1.8
		c0.1-0.9,1-1.4,1.8-1.1C108.8,34.3,109.3,35.1,109.1,35.9z"/>
</g>
<path d="M92.7,20.9l-5.3,26.3l11.8,2.3L98.1,55c-1.1,0-2.1,0.4-2.8,1.2L77.5,73.8c-1.4,1.4-3.1,2.1-4.9,2.1H53.9
	c-1.7,0-3.6-0.7-4.9-2.1L31.4,56.2c-0.7-0.7-1.6-1.1-2.6-1.2l-0.6-3l11.3-2.3l-5.3-26.2L7.9,28.8l5.3,26.3l12.2-2.5l0.6,3.2
	c-0.1,0.1-0.2,0.2-0.4,0.4c-1.6,1.6-1.6,4.2,0,5.7l24.8,25v20.6h25.3V86.8l25-24.8c1.5-1.6,1.5-4.2,0-5.8l-0.1-0.1l1.2-5.9l11.9,2.3
	l5.3-26.3L92.7,20.9z M14.5,53.1L9.8,30L33,25.4l4.7,23.1L14.5,53.1z M112.4,50.7L89.3,46l4.7-23.1l23.1,4.7L112.4,50.7z"/>
</svg>